<?xml version="1.0" encoding="UTF-8"?>
<svg version="1.1" viewBox="0 0 2048 1072" width="1201" height="629" xmlns="http://www.w3.org/2000/svg">
<path transform="translate(653,264)" d="m0 0h227l8 2 6 4 11 11 7 8 12 13 7 8 11 12 27 30 11 12 7 8 12 13 7 8 11 12 5 2 8-7 14-15 7-8 11-12 7-8 12-13 7-8 12-13 9-10 7-8 11-12 7-8 12-13 6-5 10-3h228l6 3 2 2v6l-4 6-12 14-11 12-9 11-8 8-9 3-22 1-15 16-11 12-4 5-7 5-7 2-20 1-10 11-9 11-9 10-5 5-4 3-7 2-114 1-7 8-15 16-9 10 2 4 7 8 12 13 6 8 1 2v6l-6 9-15 16-7 8-11 12-7 8-11 12-7 8-8 7-4 2-5-1-10-9-12-13-7-8-11-12-9-10-7-8-11-12-6-9v-6l8-11 9-9 7-8 4-5-2-4-22-24-7-8-114-1-8-3-8-7-10-11-9-11-9-10-20-1-7-2-10-9-7-7-7-8-13-14-22-1-7-2-9-8-7-8-12-14-11-12-6-8-1-2v-6l5-4zm29 23 6 8 7 7 6 3 6 1 163 1 7 4 12 13 18 20 11 12 27 30 11 12 7 8 12 13 7 8 11 12 7 8 12 13 7 6 6-1 15-15 7-8 11-12 27-30 10-11 7-8 13-14 7-8 11-12 18-20 11-12 5-5 5-3 161-1 11-2 8-7 8-9v-1h-195l-9 7-7 8-15 16-7 8-12 13-9 10-12 13-9 10-12 13-9 10-22 24-9 10-7 6-3 2-5-1-8-6-15-16-9-10-22-24-7-8-14-15-18-20-12-13-9-10-12-13-9-10-6-4zm66 41 2 5 12 13 6 3h113l-4-6-11-14-2-1zm430 0-10 11-7 9v1h113l8-4 10-12 2-5zm-364 42 2 4 11 13 7 4 6 1h18l62-1-6-8-11-13zm325 0-12 14-5 7 62 1h18l9-2 9-8 8-10v-2zm-152 95-12 13-4 7 2 6 36 40 9 8 4 1 6-4 13-13 7-8 12-13 7-8 4-6-1-5-6-8-9-10-6 5-7 8-11 12-1 3-4 2-6 2-5-3-10-10-7-8-10-11z" fill="#C58E14"/>
<path transform="translate(251,641)" d="m0 0h124v27l-111 1-13 2-5 3-3 5-1 4v10l3 7 5 4 7 2 80 1 15 2 11 4 9 7 6 9 3 7 2 13v8l-3 15-6 11-7 7-14 7-8 2-13 1h-117l-1-1v-27l124-1 9-3 5-4 3-6v-14l-3-6-5-4-6-2-78-1-14-1-10-3-11-6-8-8-6-12-2-7v-17l4-13 8-11 9-6 9-4z" fill="#C58E14"/>
<path transform="translate(1706,641)" d="m0 0h123l1 4-1 23-111 1-10 1-8 5-3 6-1 8 2 8 3 5 10 4 80 1 16 2 10 4 9 6 7 10 3 9 1 5v19l-3 11-5 9-6 7-10 6-9 3-18 2h-117v-28l123-1 10-3 5-5 3-7v-11l-4-8-7-4-4-1-77-1-14-1-13-4-11-7-8-10-4-10-2-16 2-12 6-12 7-8 10-6z" fill="#C58E14"/>
<path transform="translate(1430,641)" d="m0 0h123l14 3 12 6 10 9 6 9 4 9 2 8 1 9v10l-2 13-5 13-7 9-8 7-10 5 6 7 40 40v2h-38l-11-11-7-8-12-13-11-12-59-1v-24l72-1 10-3 6-4 5-8 2-6v-19l-3-9-5-6-8-4-3-1-13-1h-82l-1 3v127l-2 1h-25l-1-1z" fill="#C58E14"/>
<path transform="translate(1227,641)" d="m0 0h141v27l-113 1-1 103h114l1 1v26l-2 1h-140l-1-1v-157z" fill="#C58E14"/>
<path transform="translate(639,641)" d="m0 0h142v27l-113 1-1 4v98l114 1v27l-1 1h-140l-1-1z" fill="#C58E14"/>
<path transform="translate(940,204)" d="m0 0h80l6 4 15 16 7 8 12 14 12 13 7 8 10 11 9 12 1 2-1 9-8 10-12 13-9 10-11 12-9 10-12 13-9 10-4 3-6-1-6-5-7-8-15-16-7-8-12-13-11-12-7-8-6-8-1-5 3-7 11-13 15-16v-4l-7-8-9-10-7-8-11-12-7-10v-4zm50 22-11 1 1 4 9 10 7 8 8 9-1 4-14 15-7 8-11 12 1 4 11 11 7 8 15 16 11 12 5 5 4-2 7-8 9-10 7-8 9-10 7-8 10-11-2-5-7-7-7-8-9-10-7-8-10-11-7-8-11-12-1-1z" fill="#C58E14"/>
<path transform="translate(435,641)" d="m0 0h148v27l-60 1v130l-9 1h-18l-1-1v-130h-59l-1-1z" fill="#C58E14"/>
<path transform="translate(843,641)" d="m0 0h27v131h107v27l-1 1h-133l-1-1v-157z" fill="#C58E14"/>
<path transform="translate(1034,641)" d="m0 0h28v131h107v27l-2 1h-132l-1-1z" fill="#C58E14"/>
<path transform="translate(687,707)" d="m0 0h88v23l-87 1-1-1z" fill="#C58E14"/>
<path transform="translate(1275,707)" d="m0 0h87l1 5v18l-87 1-2-1v-22z" fill="#C58E14"/>
<path transform="translate(1021,262)" d="m0 0 2 2 5 16v3h21l-5 5-10 7 1 7 4 14-5-2-11-8-4 1-13 9-1-3 5-18-4-2-12-9v-1h21l2-9z" fill="#C58E14"/>
<path transform="translate(1745,555)" d="m0 0h12l10 4 8 7 5 9 1 4v11l-3 9-6 8-9 6-7 2h-10l-9-3-6-4-6-7-4-9v-14l4-9 7-8 6-4zm3 5-9 3-6 4-6 10-1 11 3 9 7 8 8 4 8 1 9-2 8-6 5-7 1-3v-14l-4-8-8-7-10-3z" fill="#C58E14"/>
<path transform="translate(1740,568)" d="m0 0 19 1 4 4v7l-3 4h-3l8 12v2h-6l-7-9-1-2-6-1v12h-5l-1-1v-28zm6 5-1 1v7h10l2-2-1-5-3-1z" fill="#C58E14"/>
</svg>